<?xml version="1.0" standalone="no"?>
<!DOCTYPE svg PUBLIC "-//W3C//DTD SVG 20010904//EN"
 "http://www.w3.org/TR/2001/REC-SVG-20010904/DTD/svg10.dtd">
<svg version="1.0" xmlns="http://www.w3.org/2000/svg"
 width="300.000000pt" height="300.000000pt" viewBox="0 0 300.000000 300.000000"
 preserveAspectRatio="xMidYMid meet">
<metadata>
Created by potrace 1.10, written by Peter Selinger 2001-2011
</metadata>
<g transform="translate(0.000000,300.000000) scale(0.100000,-0.100000)"
fill="#0094ff" stroke="none">
<path d="M1410 2977 c-3 -2 -36 -7 -75 -10 -512 -42 -1012 -420 -1204 -910
-38 -98 -72 -214 -85 -287 -3 -19 -9 -53 -13 -75 -14 -77 -7 -356 11 -450 101
-536 477 -972 984 -1142 155 -52 289 -73 458 -73 78 0 178 5 221 11 508 70
954 415 1153 892 85 204 110 344 106 597 -4 213 -13 271 -71 447 -103 309
-327 593 -611 775 -137 88 -335 166 -504 199 -93 17 -359 37 -370 26z m415
-56 c44 -12 97 -26 119 -32 43 -11 146 -56 248 -109 243 -126 477 -368 607
-628 106 -212 151 -407 151 -654 -1 -257 -58 -482 -180 -704 -50 -91 -128
-204 -146 -211 -8 -3 -14 -10 -14 -15 0 -27 -264 -268 -294 -268 -4 0 -16 -9
-27 -19 -26 -24 -220 -121 -309 -154 -66 -25 -159 -47 -285 -68 -69 -11 -338
-8 -435 6 -137 19 -427 120 -451 157 -3 5 -9 8 -12 6 -4 -1 -51 26 -104 62
-172 113 -362 317 -463 495 -19 33 -34 62 -34 65 0 3 -16 41 -37 85 -21 44
-41 94 -44 110 -4 17 -13 49 -21 73 -45 137 -59 442 -29 626 29 178 106 386
198 531 82 131 235 295 361 390 80 60 210 139 247 150 13 4 33 13 44 19 35 21
129 56 158 58 15 1 27 5 27 9 0 3 30 11 68 18 37 7 87 16 112 21 25 5 140 7
255 6 177 -3 223 -7 290 -25z"/>
<path d="M1305 2899 c-38 -5 -111 -20 -162 -34 -265 -70 -473 -193 -664 -393
-147 -153 -249 -321 -313 -512 -59 -179 -71 -253 -71 -460 0 -203 12 -282 66
-443 274 -822 1218 -1204 1990 -805 100 52 252 159 327 231 202 194 358 486
408 767 23 127 23 372 1 497 -104 573 -537 1016 -1112 1138 -95 20 -366 28
-470 14z m378 -19 c15 0 27 -3 27 -7 0 -5 20 -9 44 -10 24 -1 57 -8 73 -16 16
-9 57 -21 91 -28 34 -7 62 -16 62 -19 0 -3 10 -7 22 -7 13 -1 24 -7 26 -13 2
-5 7 -8 12 -5 5 3 14 0 22 -7 7 -7 21 -14 31 -16 17 -3 86 -40 97 -52 9 -9 64
-41 83 -47 9 -3 17 -9 17 -14 0 -5 7 -9 15 -9 8 0 15 -4 15 -9 0 -4 17 -20 38
-33 20 -14 67 -55 103 -91 56 -54 89 -92 179 -204 6 -7 10 -17 10 -23 0 -5 5
-10 11 -10 5 0 8 -4 4 -9 -3 -6 0 -13 7 -18 13 -8 104 -185 110 -213 2 -8 6
-17 9 -20 11 -9 57 -164 68 -231 14 -84 14 -457 0 -535 -14 -76 -50 -204 -58
-204 -4 0 -8 -10 -8 -22 -1 -13 -7 -24 -12 -26 -5 -2 -7 -10 -4 -18 3 -8 0
-14 -6 -14 -6 0 -10 -3 -9 -7 2 -5 -15 -43 -36 -85 -48 -94 -173 -263 -252
-339 -89 -86 -114 -109 -119 -109 -3 0 -37 -23 -75 -50 -71 -51 -209 -126
-222 -122 -5 1 -8 -3 -8 -9 0 -6 -7 -9 -15 -5 -8 3 -15 1 -15 -3 0 -12 -139
-59 -162 -55 -10 1 -18 -1 -18 -5 0 -15 -199 -35 -345 -35 -141 0 -317 18
-340 33 -5 4 -21 8 -35 9 -32 1 -140 42 -140 53 0 5 -6 6 -14 3 -8 -3 -17 -1
-21 5 -3 6 -15 11 -26 11 -10 0 -19 5 -19 10 0 6 -7 10 -15 10 -8 0 -31 11
-51 25 -20 14 -43 25 -50 25 -8 0 -14 5 -14 10 0 6 -7 10 -15 10 -8 0 -15 5
-15 10 0 6 -6 10 -13 10 -7 0 -23 10 -37 23 -14 12 -41 34 -60 48 -53 40 -198
188 -233 239 -17 25 -35 50 -39 55 -43 53 -148 252 -151 285 -1 11 -4 20 -8
20 -3 0 -12 26 -19 58 -7 31 -18 63 -23 70 -5 7 -7 15 -4 19 4 3 2 14 -3 23
-30 55 -47 406 -24 500 4 19 7 41 5 48 -1 7 3 29 9 48 7 19 13 41 14 47 2 7 5
19 8 27 3 8 11 37 17 65 7 27 17 52 23 56 6 4 8 11 5 16 -13 21 142 297 206
367 37 41 88 100 95 111 4 6 37 35 75 64 37 30 67 57 67 61 0 4 12 13 28 21
15 8 32 17 37 22 55 42 191 117 199 110 3 -4 6 -1 6 5 0 7 12 12 26 12 14 0
23 4 19 10 -6 10 15 14 44 11 7 -2 10 2 6 8 -3 7 2 11 14 11 24 0 114 22 121
30 3 3 12 7 20 9 68 17 93 21 101 16 5 -4 9 -1 9 5 0 6 3 9 8 7 4 -3 27 -1 52
4 25 4 106 6 180 3 74 -2 147 -4 163 -4z"/>
<path d="M1248 2820 c-462 -97 -823 -399 -997 -833 -199 -497 -65 -1088 331
-1462 57 -54 92 -81 233 -176 22 -15 63 -37 90 -49 28 -13 62 -29 78 -37 15
-8 27 -12 27 -8 0 3 10 -1 23 -9 19 -13 132 -46 208 -61 138 -28 305 -32 454
-9 102 15 268 60 273 75 2 5 10 9 18 9 16 0 15 0 137 60 48 24 87 47 87 52 0
4 5 8 11 8 21 0 157 111 236 193 129 135 207 260 293 472 49 120 80 295 80
455 0 349 -129 668 -374 927 -148 157 -359 289 -571 357 -183 59 -457 74 -637
36z m562 -48 c240 -63 420 -163 593 -331 410 -396 516 -1015 261 -1523 -146
-291 -389 -516 -686 -632 -706 -277 -1497 97 -1727 816 -229 716 194 1484 919
1668 130 33 192 39 365 35 138 -3 176 -7 275 -33z"/>
<path d="M1360 2703 c-46 -9 -51 -20 -44 -102 4 -42 11 -82 17 -89 13 -16 87
-8 98 10 13 20 -2 152 -19 171 -8 9 -18 16 -21 16 -3 -1 -17 -4 -31 -6z m34
-64 c3 -17 6 -47 6 -65 0 -27 -4 -34 -19 -34 -22 0 -29 17 -31 75 -2 55 -2 55
19 55 13 0 20 -10 25 -31z"/>
<path d="M1518 2631 c3 -52 1 -81 -7 -85 -6 -4 -11 -14 -11 -22 0 -10 14 -14
55 -14 51 0 56 2 66 27 5 15 8 36 5 48 -3 11 -1 37 3 57 11 49 -9 68 -71 68
l-45 0 5 -79z m82 18 c0 -21 -16 -33 -34 -26 -8 3 -12 15 -9 30 4 18 10 23 24
20 10 -3 19 -14 19 -24z m-10 -84 c0 -18 -5 -25 -20 -25 -15 0 -20 7 -20 25 0
18 5 25 20 25 15 0 20 -7 20 -25z"/>
<path d="M1730 2665 c0 -37 -21 -116 -38 -142 -12 -19 -12 -24 -1 -27 86 -27
91 -28 100 -15 13 21 11 36 -6 43 -8 3 -15 1 -15 -4 0 -6 -7 -10 -15 -10 -8 0
-15 7 -15 16 0 30 24 109 37 122 17 17 17 32 -1 32 -8 0 -21 3 -30 6 -12 5
-16 0 -16 -21z"/>
<path d="M1135 2655 c-37 -12 -48 -30 -26 -45 9 -6 34 -104 35 -135 1 -15 7
-19 25 -17 35 4 36 8 16 47 -26 47 -13 54 20 11 27 -36 65 -49 65 -22 0 7 -11
21 -25 30 -22 14 -24 22 -20 54 6 41 -12 86 -35 88 -8 1 -33 -4 -55 -11z m59
-42 c4 -9 2 -21 -3 -26 -15 -15 -41 0 -41 23 0 25 35 28 44 3z"/>
<path d="M1926 2598 c-28 -43 -64 -135 -58 -145 12 -17 70 -43 85 -37 21 7 80
140 73 162 -3 10 -21 23 -39 30 -44 16 -44 16 -61 -10z m59 -29 c9 -13 -36
-119 -50 -119 -5 0 -16 4 -23 9 -11 6 -7 20 14 64 27 55 45 69 59 46z"/>
<path d="M2109 2528 c-1 -7 -2 -22 -3 -33 -1 -11 -3 -29 -4 -41 -1 -13 -17
-27 -47 -42 -51 -24 -54 -32 -24 -50 18 -12 23 -11 36 7 8 12 18 21 24 21 14
0 11 -21 -6 -40 -14 -16 -13 -19 10 -34 30 -19 33 -15 37 54 3 43 5 46 45 60
51 17 60 33 28 54 -22 15 -24 14 -30 -3 -6 -21 -35 -37 -35 -20 0 6 5 20 11
31 9 18 8 24 -7 35 -22 16 -34 17 -35 1z"/>
<path d="M767 2463 c-42 -30 -46 -43 -18 -60 21 -13 86 -103 75 -103 -3 0 -1
-6 5 -14 11 -13 18 -11 51 12 22 15 42 35 45 44 7 21 -83 147 -105 148 -8 0
-32 -12 -53 -27z m92 -64 c28 -41 32 -52 20 -60 -22 -14 -25 -12 -64 42 -29
40 -34 54 -23 60 23 15 32 10 67 -42z"/>
<path d="M1365 2394 c-198 -31 -364 -115 -504 -255 -146 -146 -226 -309 -257
-524 -15 -103 -15 -120 1 -226 35 -241 145 -439 322 -582 174 -141 379 -209
603 -202 327 11 625 204 771 500 63 129 90 231 94 366 5 171 -28 313 -107 459
-136 254 -377 421 -669 464 -124 19 -135 19 -254 0z m342 -43 c10 -5 38 -15
63 -22 119 -35 255 -122 361 -231 44 -44 79 -83 79 -88 0 -5 6 -15 13 -22 38
-41 112 -214 128 -301 13 -76 12 -300 -2 -370 -29 -141 -104 -286 -202 -393
-115 -124 -215 -189 -387 -249 -103 -37 -107 -37 -260 -38 -144 0 -161 2 -240
27 -256 85 -441 239 -548 458 -61 124 -84 234 -83 387 2 165 21 251 87 384 77
155 227 309 364 373 19 9 38 21 42 28 4 6 8 8 8 4 0 -4 25 4 55 18 31 13 64
24 75 24 10 0 21 4 24 9 3 5 27 9 52 9 26 1 49 4 53 8 9 10 297 -4 318 -15z"/>
<path d="M1350 2315 c-36 -9 -74 -17 -85 -19 -11 -3 -21 -5 -22 -7 -2 -1 -7
-3 -13 -4 -5 -1 -11 -3 -12 -5 -2 -1 -11 -3 -22 -5 -10 -2 -23 -8 -29 -14 -6
-6 -19 -11 -29 -11 -10 0 -18 -4 -18 -10 0 -5 -6 -10 -14 -10 -8 0 -21 -6 -28
-12 -7 -7 -25 -19 -40 -27 -14 -7 -39 -25 -56 -40 -16 -14 -40 -35 -53 -47
-25 -22 -54 -55 -106 -120 -29 -38 -101 -180 -117 -231 -12 -38 2 -63 35 -63
26 0 32 6 59 65 17 36 30 73 30 82 0 9 3 14 6 10 4 -3 18 17 32 46 28 57 141
174 209 217 23 15 40 30 36 34 -3 3 6 6 21 6 16 0 25 4 21 10 -3 6 1 10 10 10
9 0 40 11 68 24 47 22 73 29 162 43 52 8 236 3 255 -7 10 -6 27 -10 37 -10 10
0 41 -11 68 -25 28 -13 58 -25 68 -25 10 0 15 -4 12 -10 -3 -5 3 -10 14 -10
12 0 21 -4 21 -9 0 -5 13 -14 30 -19 16 -6 43 -23 59 -39 16 -15 35 -32 41
-38 73 -64 146 -173 191 -285 25 -61 29 -65 62 -68 27 -2 35 1 39 16 8 31 -33
136 -96 246 -25 44 -139 165 -190 201 -16 11 -35 26 -42 33 -20 19 -169 92
-188 92 -8 0 -17 4 -20 9 -3 5 -23 12 -43 15 -21 3 -49 8 -63 12 -62 14 -237
13 -300 -1z m310 -27 c86 -16 204 -65 284 -119 85 -57 197 -172 244 -251 28
-47 92 -189 92 -204 0 -2 -11 -4 -25 -4 -19 0 -26 7 -31 28 -23 93 -106 226
-199 318 -229 224 -580 278 -870 132 -187 -94 -325 -258 -389 -460 -4 -15 -46
-27 -46 -15 0 17 47 132 71 176 172 307 517 465 869 399z"/>
<path d="M1375 2133 c-184 -41 -349 -166 -438 -331 -91 -169 -101 -378 -28
-543 27 -61 44 -66 99 -32 63 39 69 52 52 110 -10 31 -15 91 -15 173 0 115 2
129 27 180 l26 55 1 -198 c1 -116 5 -206 11 -218 14 -26 33 -24 91 9 77 43 79
50 76 330 -2 239 0 252 29 252 2 0 4 -101 4 -224 0 -207 1 -226 19 -247 l20
-24 53 29 c85 46 88 51 88 183 0 73 4 112 10 108 6 -4 10 -55 10 -120 l0 -114
33 -24 c109 -83 130 -72 137 72 l5 98 139 -80 138 -80 -5 -53 c-3 -28 -13 -77
-23 -107 -21 -67 -16 -76 59 -114 48 -24 50 -24 68 -6 10 10 29 53 43 97 21
63 26 99 26 178 0 97 -1 100 -29 126 -27 24 -28 29 -15 46 20 28 18 43 -15
111 -87 183 -269 325 -458 357 -101 17 -103 15 -103 -128 0 -69 -4 -114 -10
-114 -6 0 -10 43 -10 108 0 93 -3 111 -18 125 -18 16 -54 20 -97 10z m85 -316
l0 -292 -54 -33 c-30 -17 -57 -32 -61 -32 -3 0 -5 115 -3 255 2 140 0 255 -4
255 -4 0 -28 -10 -53 -22 l-46 -22 1 -264 1 -264 -55 -34 -56 -33 0 252 0 252
-20 -25 c-41 -51 -90 -166 -100 -234 -12 -78 -1 -177 26 -246 9 -23 15 -42 13
-44 -2 -1 -25 -15 -51 -29 l-48 -28 -15 38 c-34 81 -47 165 -42 268 8 166 68
296 189 410 92 87 251 162 351 164 l27 1 0 -293z m245 258 c161 -56 303 -196
365 -360 8 -22 5 -27 -30 -48 l-40 -24 50 -27 c58 -31 67 -57 56 -162 -6 -60
-51 -224 -61 -224 -3 0 -27 14 -54 30 l-50 31 20 45 c11 24 23 75 26 112 l6
68 -164 95 c-90 52 -167 95 -171 97 -4 2 -9 -53 -10 -122 l-3 -126 -53 33 -53
32 -2 293 -2 294 50 -7 c28 -3 81 -17 120 -30z"/>
<path d="M1650 1908 l1 -63 116 -67 c101 -57 120 -65 140 -55 29 13 29 16 -5
63 -55 75 -162 159 -229 179 -22 6 -23 4 -23 -57z m96 -16 c56 -37 105 -82
127 -115 20 -32 7 -35 -31 -9 -15 11 -57 36 -94 56 -60 33 -68 41 -68 67 0 36
14 37 66 1z"/>
<path d="M695 1617 c-13 -10 -16 -21 -11 -40 3 -14 2 -29 -4 -32 -14 -9 -12
-43 3 -48 9 -3 9 -8 -2 -21 -11 -14 -12 -22 -4 -36 7 -10 9 -27 6 -39 -7 -27
11 -49 39 -47 26 1 44 28 34 52 -11 27 -14 91 -5 106 4 6 3 21 -3 31 -7 14 -7
22 3 28 10 6 10 13 1 33 -13 29 -29 33 -57 13z m43 -24 c2 -8 -6 -13 -22 -13
-25 0 -33 10 -19 24 10 10 36 3 41 -11z m-3 -68 c0 -5 -10 -11 -22 -13 -16 -2
-23 2 -23 13 0 11 7 15 23 13 12 -2 22 -7 22 -13z m-2 -70 c-4 -15 -36 -12
-41 3 -3 9 3 13 19 10 13 -1 23 -7 22 -13z m7 -65 c0 -5 -9 -10 -20 -10 -11 0
-20 5 -20 10 0 6 9 10 20 10 11 0 20 -4 20 -10z"/>
<path d="M2246 1614 c-18 -18 -20 -30 -7 -39 5 -3 7 -21 4 -40 -4 -25 -2 -35
8 -35 10 0 10 -3 1 -12 -16 -16 -16 -58 0 -58 6 0 3 -6 -7 -14 -17 -12 -18
-17 -7 -40 10 -22 16 -25 39 -20 41 10 48 20 35 49 -6 14 -8 25 -3 25 13 0 20
37 9 48 -6 6 -6 17 0 29 6 11 7 25 2 33 -5 8 -6 27 -3 42 5 23 1 29 -21 38
-34 13 -32 13 -50 -6z m52 -21 c2 -8 -6 -13 -22 -13 -25 0 -33 10 -19 24 10
10 36 3 41 -11z m10 -70 c2 -8 -6 -13 -22 -13 -17 0 -26 5 -26 16 0 19 41 16
48 -3z m0 -65 c-7 -20 -48 -23 -48 -4 0 11 9 16 26 16 16 0 24 -5 22 -12z m-8
-68 c0 -5 -11 -10 -25 -10 -14 0 -25 5 -25 10 0 6 11 10 25 10 14 0 25 -4 25
-10z"/>
<path d="M1465 1473 c-111 -60 -463 -268 -479 -283 -29 -29 -13 -64 67 -143
72 -72 175 -137 216 -137 12 0 106 49 209 109 264 153 246 144 273 122 l23
-19 -114 -56 c-153 -75 -254 -137 -258 -159 -7 -37 16 -48 102 -46 177 4 324
67 438 187 76 79 92 106 79 130 -8 15 -178 120 -278 171 -25 13 -31 10 -307
-151 -138 -80 -172 -96 -187 -87 -28 15 -24 21 33 54 28 17 63 37 77 45 14 9
69 39 121 69 186 105 190 117 67 185 -26 14 -49 26 -50 26 -1 -1 -15 -8 -32
-17z m90 -47 l57 -34 -59 -34 c-32 -19 -131 -76 -221 -128 -150 -86 -161 -94
-147 -110 9 -9 31 -25 49 -35 l34 -18 227 131 227 131 145 -84 146 -84 -84
-83 c-98 -97 -188 -147 -311 -172 -80 -17 -198 -22 -198 -8 1 9 200 120 266
147 28 12 72 37 98 55 l46 34 -52 30 c-29 17 -55 30 -58 29 -3 -1 -104 -58
-224 -127 -119 -69 -222 -126 -228 -126 -28 0 -138 71 -194 126 -103 102 -119
79 169 247 139 80 253 146 254 146 1 1 27 -14 58 -33z"/>
<path d="M714 1275 c-3 -8 -1 -29 5 -46 6 -17 8 -35 5 -40 -3 -5 0 -9 6 -9 6
0 8 -4 5 -10 -3 -5 -3 -10 2 -10 4 0 14 -15 22 -32 26 -61 182 -258 205 -258
3 0 15 -8 25 -17 36 -33 50 -43 60 -43 5 0 11 -4 13 -8 5 -13 128 -72 149 -72
10 0 19 -5 19 -11 0 -5 4 -8 8 -5 5 3 33 -2 63 -10 30 -9 69 -16 87 -16 17 -1
32 -5 32 -9 0 -4 8 -5 18 -3 9 2 60 5 112 8 52 2 111 9 130 15 19 6 48 11 63
11 16 0 26 4 22 10 -3 6 4 10 17 10 28 0 124 46 152 72 11 10 24 18 29 18 10
0 112 84 144 120 41 46 48 54 77 100 45 71 86 149 86 165 0 8 4 15 9 15 7 0 8
35 3 63 -1 4 -17 7 -36 7 -30 0 -36 -5 -55 -45 -12 -25 -21 -48 -21 -51 0 -10
-72 -127 -95 -152 -39 -46 -84 -90 -127 -125 -52 -42 -172 -107 -199 -107 -10
0 -19 -3 -19 -8 0 -14 -129 -32 -233 -32 -99 0 -198 12 -242 30 -35 14 -140
65 -145 70 -3 3 -24 18 -47 33 -40 28 -102 85 -133 124 -39 49 -70 92 -70 99
0 4 -6 15 -14 23 -7 9 -21 39 -31 66 -10 28 -23 56 -28 63 -13 17 -66 15 -73
-3z m89 -88 c127 -276 389 -447 688 -447 171 0 283 33 426 127 127 83 240 222
290 356 14 38 22 47 41 47 29 0 26 -14 -25 -115 -50 -99 -88 -150 -164 -225
-169 -164 -412 -248 -638 -223 -297 34 -534 203 -656 466 -40 86 -42 97 -17
97 12 0 29 -25 55 -83z"/>
<path d="M611 2324 c-32 -35 -35 -64 -7 -64 8 0 37 -25 66 -56 l51 -57 39 38
c37 37 39 40 23 57 -18 20 -38 19 -38 -3 0 -8 -4 -20 -9 -27 -6 -11 -12 -10
-27 4 -18 16 -18 18 -2 36 24 27 2 49 -25 25 -18 -16 -20 -16 -35 1 -18 20 -6
45 18 36 19 -8 29 14 15 31 -19 23 -34 18 -69 -21z"/>
<path d="M2395 2216 c-28 -23 -29 -26 -18 -57 11 -28 10 -36 -1 -47 -18 -18
-36 -7 -36 22 0 12 -3 26 -7 29 -10 10 -33 -13 -33 -33 0 -18 43 -70 57 -70 5
0 24 13 43 29 35 30 35 30 18 60 -15 28 -15 30 1 46 16 14 20 14 30 1 7 -8 10
-19 8 -24 -3 -4 -2 -14 3 -22 7 -11 11 -11 24 -1 21 18 20 27 -5 62 -25 35
-45 36 -84 5z"/>
<path d="M482 2160 c-14 -24 -8 -40 15 -40 18 0 110 -65 116 -83 3 -9 9 -9 23
-1 25 15 31 44 9 44 -20 0 -105 57 -123 82 -17 23 -24 23 -40 -2z"/>
<path d="M2473 2034 c-56 -26 -73 -38 -73 -54 0 -28 28 -80 43 -80 6 0 45 15
84 32 60 27 73 37 73 56 0 35 -30 84 -50 81 -3 0 -38 -16 -77 -35z m87 -24
c10 -19 6 -23 -45 -45 -66 -30 -71 -30 -79 -9 -8 20 -12 16 49 47 61 32 62 32
75 7z"/>
<path d="M382 1968 c-17 -39 -19 -53 -10 -59 7 -4 15 -6 19 -3 8 5 102 -37
132 -58 14 -11 19 -10 27 2 16 25 7 44 -24 47 -37 3 -41 8 -28 37 9 20 8 25
-5 30 -15 6 -32 -8 -33 -26 0 -11 -22 -9 -40 3 -13 8 -12 12 8 26 22 15 30 43
13 43 -5 0 -15 2 -23 5 -8 3 -21 -14 -36 -47z"/>
<path d="M2552 1856 c-40 -12 -77 -27 -81 -35 -14 -23 12 -85 37 -89 26 -4 30
19 7 38 -26 22 -16 37 33 49 26 7 54 14 63 17 18 5 32 -29 18 -43 -4 -4 -4
-15 1 -23 8 -13 11 -13 26 2 21 20 12 84 -14 96 -11 5 -44 1 -90 -12z"/>
<path d="M320 1770 c0 -11 -1 -23 -2 -27 -2 -5 15 -9 37 -10 35 -1 80 -14 138
-38 12 -5 17 -3 17 8 0 9 3 23 6 31 5 13 0 16 -22 14 -35 -2 -132 21 -140 33
-10 17 -34 9 -34 -11z"/>
<path d="M2563 1663 c-54 -5 -65 -20 -55 -69 6 -30 13 -40 30 -42 15 -2 22 2
22 12 0 9 -4 16 -10 16 -5 0 -10 11 -10 25 0 23 4 25 43 25 23 0 53 3 66 7 23
6 24 5 17 -35 -5 -32 -3 -42 8 -42 26 0 37 25 28 66 -8 38 -9 39 -52 40 -25 1
-64 -1 -87 -3z"/>
<path d="M304 1599 c-8 -8 -14 -36 -14 -60 l0 -45 68 0 c37 0 82 -3 100 -8
l32 -8 0 55 c0 31 -5 59 -12 65 -7 6 -46 12 -86 14 -57 2 -77 0 -88 -13z m119
-25 c27 -5 37 -11 37 -25 0 -17 -8 -19 -64 -19 -65 0 -83 9 -72 35 6 16 38 19
99 9z"/>
<path d="M2510 1449 c0 -19 -3 -44 -6 -55 -4 -16 0 -23 17 -27 25 -7 44 12 29
27 -18 18 -10 36 15 36 20 0 25 -5 25 -25 0 -31 27 -34 32 -3 4 25 17 32 38
18 12 -8 13 -13 3 -30 -19 -29 -16 -40 11 -40 22 0 26 6 31 44 4 25 5 50 3 57
-2 7 -28 13 -69 14 -35 1 -79 5 -96 10 -32 7 -33 7 -33 -26z"/>
<path d="M370 1413 c-57 -5 -70 -17 -70 -63 0 -53 16 -63 92 -54 97 11 108 17
108 62 0 62 -9 65 -130 55z m96 -71 c-3 -2 -34 -7 -70 -9 -62 -5 -66 -4 -66
15 0 16 8 22 33 26 75 13 92 11 100 -8 4 -10 5 -21 3 -24z"/>
<path d="M2490 1296 c0 -8 -3 -21 -6 -30 -5 -13 2 -16 35 -16 54 0 53 -16 -1
-25 -40 -7 -57 -18 -58 -38 0 -5 20 -5 44 -2 34 5 46 3 52 -8 5 -8 26 -19 46
-25 43 -12 61 2 73 55 9 45 8 48 -17 49 -36 2 -110 25 -132 40 -26 18 -36 18
-36 0z m147 -82 c3 -8 1 -20 -4 -25 -14 -14 -43 0 -43 22 0 24 38 26 47 3z"/>
<path d="M485 1251 c-14 -13 -116 -42 -126 -35 -19 11 -37 -10 -28 -33 6 -18
16 -23 44 -23 41 0 45 -11 10 -34 -14 -9 -25 -25 -25 -37 0 -22 28 -38 39 -22
9 14 109 46 125 40 25 -10 38 8 27 36 -12 31 -15 32 -34 12 -8 -7 -28 -17 -43
-21 l-29 -7 24 27 24 26 -31 0 c-18 0 -32 5 -32 10 0 10 5 11 63 15 35 3 38 6
30 33 -6 23 -22 28 -38 13z"/>
<path d="M2464 1018 c-15 -29 -46 -81 -70 -116 -45 -65 -47 -74 -14 -92 16 -9
25 -1 63 58 25 37 56 90 71 119 l25 51 -24 16 c-24 16 -25 16 -51 -36z"/>
<path d="M525 947 c-17 -13 -16 -17 25 -73 23 -32 63 -80 88 -106 43 -45 46
-46 68 -31 l24 15 -56 61 c-30 34 -67 81 -82 104 -29 46 -38 50 -67 30z"/>
<path d="M2026 635 c-16 -15 -25 -32 -22 -41 14 -37 88 -134 102 -134 21 0 74
38 74 53 0 25 -86 142 -106 145 -11 2 -33 -9 -48 -23z m84 -65 c31 -48 33 -70
5 -70 -17 0 -79 96 -70 110 13 21 34 8 65 -40z"/>
<path d="M996 613 c-3 -4 -6 -14 -6 -24 0 -24 -41 -112 -57 -122 -25 -16 -12
-35 37 -55 l50 -21 11 21 c13 24 -2 39 -31 31 -24 -6 -32 10 -16 32 10 14 16
16 34 6 19 -10 23 -9 29 5 4 10 2 19 -3 21 -31 11 -36 20 -24 44 l13 23 17
-22 c10 -12 23 -22 28 -22 10 0 28 39 20 43 -33 20 -97 44 -102 40z"/>
<path d="M1923 582 c-33 -15 -48 -37 -37 -53 8 -14 34 -11 34 5 0 19 32 30 42
14 13 -21 9 -36 -11 -43 -30 -9 -34 -40 -12 -84 l21 -39 50 21 c27 11 50 24
50 27 0 3 -7 15 -15 26 -15 19 -16 19 -31 -3 -20 -27 -39 -30 -48 -6 -5 12 1
23 18 36 30 21 32 37 11 76 -19 37 -33 42 -72 23z"/>
<path d="M1111 528 c-24 -65 -24 -67 8 -86 30 -16 41 -45 22 -56 -5 -3 -20 3
-34 14 -33 26 -39 25 -35 -7 2 -23 10 -30 40 -37 44 -11 63 1 72 44 6 34 -1
60 -18 60 -24 0 -38 18 -31 39 8 27 19 27 45 -1 17 -19 23 -20 30 -9 12 20 1
41 -27 52 -40 15 -63 11 -72 -13z"/>
<path d="M1803 537 c-17 -5 -34 -16 -38 -25 -7 -18 32 -141 50 -161 15 -16 68
-7 86 15 10 12 8 30 -11 90 -13 42 -31 79 -39 83 -9 4 -30 3 -48 -2z m53 -87
c20 -58 21 -61 3 -70 -14 -8 -20 -6 -27 7 -19 36 -34 94 -28 108 11 31 32 13
52 -45z"/>
<path d="M1230 512 c0 -6 -3 -18 -7 -28 -5 -14 -2 -16 21 -12 25 5 27 3 22
-21 -3 -14 -8 -43 -12 -63 -3 -21 -10 -38 -15 -38 -15 0 -10 -28 7 -34 33 -13
45 -7 42 22 -4 39 12 132 23 132 5 0 9 -4 9 -10 0 -5 7 -10 15 -10 8 0 15 4
15 9 0 5 3 16 6 24 4 11 -3 17 -23 21 -81 16 -103 18 -103 8z"/>
<path d="M1660 503 c-30 -12 -42 -53 -14 -53 8 0 22 7 31 16 10 10 19 12 25 6
17 -17 4 -46 -22 -52 -23 -6 -25 -11 -24 -59 1 -29 4 -54 6 -57 3 -2 28 1 57
7 40 8 51 15 51 30 0 26 -30 37 -42 16 -13 -23 -35 -21 -43 4 -8 24 -9 22 30
35 28 9 30 13 27 54 -4 56 -30 73 -82 53z"/>
<path d="M1395 320 c-8 -14 3 -30 21 -30 8 0 14 9 14 20 0 21 -24 28 -35 10z"/>
</g>
</svg>
